<svg xmlns="http://www.w3.org/2000/svg" viewBox="0 0 100 100" width="100%" height="100%">
  <rect x="0" y="0" width="100" height="33.33" fill="#75AADB" />
  <rect x="0" y="33.33" width="100" height="33.34" fill="#FFFFFF" />
  <rect x="0" y="66.67" width="100" height="33.33" fill="#75AADB" />
  <!-- Sun of May -->
  <g transform="translate(50, 50)">
    <!-- Rays -->
    <path d="M0,0 L0,-14 M0,0 L0,14 M0,0 L-14,0 M0,0 L14,0 M0,0 L-10,-10 M0,0 L10,10 M0,0 L-10,10 M0,0 L10,-10" stroke="#FFB81C" stroke-width="1.5" />
    <circle cx="0" cy="0" r="6" fill="#FFB81C" stroke="#D49400" stroke-width="0.75" />
    <!-- Sun eyes/smile for authenticity -->
    <circle cx="-1.5" cy="-1" r="0.75" fill="#5F4200" />
    <circle cx="1.5" cy="-1" r="0.75" fill="#5F4200" />
    <path d="M-1.5,2 Q0,3.5 1.5,2" fill="none" stroke="#5F4200" stroke-width="0.75" stroke-linecap="round" />
  </g>
</svg>
